<svg width="54" height="54" viewBox="0 0 54 54" fill="none" xmlns="http://www.w3.org/2000/svg">
<circle cx="27" cy="27" r="27" fill="#6C63FF"/>
<path d="M27.5 14C29.1576 14 30.7473 14.6585 31.9194 15.8306C33.0915 17.0027 33.75 18.5924 33.75 20.25C33.75 21.9076 33.0915 23.4973 31.9194 24.6694C30.7473 25.8415 29.1576 26.5 27.5 26.5C25.8424 26.5 24.2527 25.8415 23.0806 24.6694C21.9085 23.4973 21.25 21.9076 21.25 20.25C21.25 18.5924 21.9085 17.0027 23.0806 15.8306C24.2527 14.6585 25.8424 14 27.5 14ZM27.5 29.625C34.4062 29.625 40 32.4219 40 35.875V39H15V35.875C15 32.4219 20.5938 29.625 27.5 29.625Z" fill="#F8F8F8"/>
</svg>
